# Blender v2.68 (sub 0) OBJ File: 'quickmushroom.blend'
# www.blender.org
mtllib quickmushroom.mtl
o Cube
v 1.143728 -0.069020 -1.143728
v 1.143728 -0.187778 1.143728
v -1.143728 -0.069020 1.143728
v -1.143728 -0.142288 -1.143729
v 0.964951 3.188322 -0.964950
v 0.964950 3.188087 0.964951
v -0.964951 3.188136 0.964950
v -0.964950 3.188917 -0.964950
v 1.324604 -0.249895 0.000000
v 0.000000 -0.249895 -1.324604
v 1.107835 0.956322 -1.107835
v -0.000000 -0.249895 1.324603
v 1.107835 0.956322 1.107835
v -1.324603 -0.249895 -0.000000
v -1.107835 0.956322 1.107835
v -1.107835 0.956322 -1.107835
v 1.260948 3.256680 0.000001
v 0.000000 3.256680 -1.260948
v -0.000001 3.256680 1.260949
v -1.260949 3.256680 -0.000000
v 0.000000 -0.424243 -0.000000
v 2.540618 4.433544 -2.540616
v 1.473220 0.936873 0.000000
v -0.000000 0.936873 1.473220
v -1.473220 0.936873 -0.000000
v 0.000000 0.936873 -1.473220
v 1.466560 2.122112 -0.934045
v 1.466559 2.122112 0.934045
v -0.401530 2.122112 0.934045
v -0.401530 2.122112 -0.934045
v 1.773896 2.158612 0.000000
v 0.532514 2.158612 1.241381
v -0.708866 2.158612 -0.000000
v 0.532515 2.158612 -1.241381
v 1.503280 3.874024 -1.503278
v 1.503278 3.871210 1.503280
v -1.503280 3.871791 1.503279
v -1.503279 3.881167 -1.503279
v 2.040474 3.947123 0.000001
v 0.000001 3.947953 -2.040474
v -0.000001 3.946937 2.040474
v -2.040474 3.947767 -0.000000
v 2.564850 5.806897 -2.564847
v 2.540616 4.425806 2.540618
v -2.540618 4.427403 2.540616
v -2.540617 4.453190 -2.540617
v 3.548445 4.521346 0.000001
v 0.000001 4.527984 -3.548445
v -0.000001 4.519857 3.548445
v -3.548445 4.526495 -0.000001
v 1.728518 6.618999 -1.728517
v 2.564847 5.815501 2.564850
v -2.564849 5.813725 2.564847
v -2.564848 5.785054 -2.564849
v 3.608771 5.938172 0.000001
v 0.000001 5.931534 -3.608771
v -0.000001 5.939661 3.608772
v -3.608771 5.933022 -0.000001
v 0.000001 5.209722 -4.028396
v 1.728517 6.625900 1.728519
v -1.728518 6.624475 1.728517
v -1.728517 6.601478 -1.728518
v 2.123689 6.838212 0.000001
v 0.000001 6.834319 -2.123689
v -0.000001 6.839085 2.123689
v -2.123689 6.835192 -0.000000
v -0.000000 7.253718 0.000000
v -2.867582 5.085468 -2.867582
v -0.000002 5.209722 4.028397
v 2.867581 5.085468 2.867584
v -4.028397 5.209722 -0.000001
v 2.867584 5.085468 -2.867581
v 4.028397 5.209722 0.000002
v -2.867583 5.085468 2.867581
vt 0.140962 0.726229
vt 0.122211 0.671415
vt 0.195776 0.707478
vt 0.375625 0.016159
vt 0.459507 0.000108
vt 0.375616 0.087335
vt 0.058965 0.914417
vt 0.061482 0.999892
vt 0.011768 0.992564
vt 0.360258 0.914417
vt 0.357742 0.999892
vt 0.308534 0.989660
vt 0.259613 0.913054
vt 0.259000 0.998152
vt 0.209612 0.911257
vt 0.159451 0.836695
vt 0.159713 0.781043
vt 0.209612 0.837063
vt 0.109775 0.789849
vt 0.086148 0.744980
vt 0.077342 0.695041
vt 0.649076 0.570627
vt 0.629063 0.657324
vt 0.545102 0.662393
vt 0.697843 0.492381
vt 0.636088 0.452345
vt 0.291763 0.000108
vt 0.060334 0.778767
vt 0.056970 0.835712
vt 0.000108 0.833629
vt 0.109005 0.836803
vt 0.109402 0.911728
vt 0.110690 0.989660
vt 0.358889 0.778767
vt 0.362253 0.835712
vt 0.310218 0.836803
vt 0.409168 0.784077
vt 0.419115 0.833628
vt 0.410895 0.914407
vt 0.407455 0.992564
vt 0.259510 0.781044
vt 0.259772 0.836695
vt 0.309448 0.789849
vt 0.309821 0.911728
vt 0.159611 0.913054
vt 0.160223 0.998152
vt 0.209612 0.988921
vt 0.493762 0.070960
vt 0.375585 0.192949
vt 0.257512 0.070942
vt 0.581413 0.543248
vt 0.541078 0.406143
vt 0.205031 0.661582
vt 0.169305 0.542422
vt 0.375179 0.608430
vt 0.751550 0.417585
vt 0.101654 0.569444
vt 0.053385 0.491181
vt 0.115400 0.451306
vt 0.121222 0.656106
vt 0.000108 0.416430
vt 0.375259 0.557948
vt 0.282161 0.478655
vt 0.298995 0.463418
vt 0.234161 0.399028
vt 0.249582 0.275555
vt 0.278675 0.299259
vt 0.501763 0.275696
vt 0.516825 0.399519
vt 0.472433 0.299436
vt 0.697749 0.351970
vt 0.211135 0.405168
vt 0.053970 0.351209
vt 0.492644 0.394991
vt 0.423343 0.341072
vt 0.451793 0.463572
vt 0.375301 0.521293
vt 0.418402 0.430661
vt 0.375548 0.256260
vt 0.327607 0.340974
vt 0.468640 0.478868
vt 0.375573 0.225518
vt 0.375428 0.386317
vt 0.375375 0.454042
vt 0.332395 0.430578
vt 0.309539 0.388401
vt 0.257130 0.394826
vt 0.258490 0.498228
vt 0.195914 0.233766
vt 0.555372 0.233882
vt 0.492104 0.498431
vt 0.172150 0.662609
vt 0.008329 0.914407
vt 0.209612 0.790280
vt 0.204582 0.757417
vt 0.010055 0.784077
vt 0.440893 0.388537
vt 0.375498 0.316094
vn 0.000000 -1.000000 0.000000
vn -0.013245 -0.670888 0.741417
vn -0.740654 -0.671804 0.008148
vn -0.588610 -0.606525 0.534410
vn -0.035585 -0.467544 0.883236
vn -0.335582 -0.880306 0.335276
vn 0.995514 0.094546 0.000000
vn 0.970244 -0.242073 -0.000336
vn 0.626667 -0.310709 0.714621
vn 0.091311 0.088534 0.991852
vn -0.999237 0.038362 0.000000
vn -0.780419 -0.625233 -0.001099
vn -0.635060 0.080508 -0.768242
vn -0.036012 0.043733 -0.998383
vn 0.008148 -0.671804 -0.740654
vn -0.712210 0.214698 -0.668294
vn 0.628315 -0.458663 -0.628315
vn 0.741417 -0.670888 -0.013245
vn 0.595813 -0.538499 0.595813
vn 0.626942 -0.309702 -0.714835
vn 0.336406 -0.879421 -0.336741
vn 0.335154 -0.880551 0.335093
vn 0.983032 -0.183416 0.000000
vn 0.671407 -0.065218 0.738182
vn 0.671438 -0.064058 -0.738243
vn 0.760063 0.083865 -0.644368
vn -0.036012 0.043733 0.998383
vn -0.712088 0.215491 0.668172
vn 0.760063 0.083895 0.644368
vn -0.978820 0.204596 0.000000
vn -0.628315 -0.458663 0.628315
vn -0.635060 0.080416 0.768242
vn 0.091311 0.088565 -0.991852
vn -0.036378 -0.466475 -0.883755
vn -0.590197 -0.603473 -0.536119
vn -0.000214 -0.870266 0.492569
vn -0.458754 -0.761223 0.458296
vn -0.494705 -0.869015 -0.003693
vn 0.493057 -0.869991 -0.001099
vn 0.458785 -0.760979 0.458693
vn -0.002808 -0.868740 -0.495193
vn 0.457717 -0.761925 -0.458144
vn -0.340129 -0.876644 -0.340190
vn 0.706076 -0.048891 -0.706412
vn -0.000732 -0.026856 -0.999634
vn -0.001343 0.676931 -0.736015
vn -0.706168 -0.050386 -0.706229
vn -0.999634 -0.026734 -0.000977
vn -0.736381 0.676534 -0.001770
vn -0.000031 -0.026154 0.999634
vn 0.706290 -0.048463 0.706229
vn -0.000092 0.674795 0.737968
vn -0.455916 -0.764275 -0.456008
vn 0.532914 0.657430 0.532670
vn -0.000366 0.925565 0.378521
vn 0.737632 0.675192 -0.000519
vn 0.531236 0.659108 -0.532273
vn 0.378979 0.925382 -0.001404
vn -0.533067 0.657826 0.532029
vn -0.380566 0.924711 -0.004120
vn 0.999634 -0.026307 -0.000275
vn -0.706412 -0.048494 0.706107
vn -0.000641 0.999969 -0.001038
vn 0.325236 0.887356 -0.326762
vn -0.003113 0.924528 -0.381024
vn -0.330424 0.883969 -0.330760
vn -0.528977 0.663381 -0.529221
vn -0.002503 -0.753563 -0.657338
vn -0.657613 -0.753319 -0.003296
vn -0.000183 -0.752312 0.658803
vn 0.658528 -0.752525 -0.000977
vn -0.609119 -0.507828 -0.609119
vn 0.324747 0.888394 0.324412
vn -0.325388 0.888333 0.323893
usemtl Material
s 1
f 21/1/1 12/2/2 14/3/3
f 7/4/4 19/5/5 37/6/6
f 31/7/7 17/8/8 6/9/9
f 32/10/10 19/11/5 7/12/4
f 33/13/11 20/14/12 30/15/13
f 26/16/14 10/17/15 16/18/16
f 10/17/15 21/1/1 14/3/3
f 1/19/17 9/20/18 10/17/15
f 9/20/18 2/21/19 12/2/2
f 17/22/8 5/23/20 35/24/21
f 6/25/9 17/22/8 36/26/22
f 20/27/12 7/4/4 37/6/6
f 9/28/18 23/29/23 13/30/24
f 1/19/17 11/31/25 9/28/18
f 27/32/26 5/33/20 31/7/7
f 12/34/2 24/35/27 15/36/28
f 2/37/19 13/38/24 12/34/2
f 28/39/29 6/40/9 19/11/5
f 14/41/3 25/42/30 16/18/16
f 3/43/31 15/36/28 14/41/3
f 29/44/32 7/12/4 20/14/12
f 34/45/33 26/16/14 16/18/16
f 27/32/26 11/31/25 26/16/14
f 11/31/25 1/19/17 10/17/15
f 23/29/23 31/7/7 13/30/24
f 24/35/27 32/10/10 15/36/28
f 25/42/30 33/13/11 30/15/13
f 11/31/25 27/32/26 31/7/7
f 13/38/24 28/39/29 24/35/27
f 15/36/28 29/44/32 25/42/30
f 18/46/34 34/45/33 8/47/35
f 5/33/20 27/32/26 18/46/34
f 37/6/6 41/48/36 45/49/37
f 42/50/38 37/6/6 45/49/37
f 36/26/22 39/51/39 44/52/40
f 35/53/21 40/54/41 22/55/42
f 19/56/5 6/25/9 36/26/22
f 18/57/34 8/58/35 38/59/43
f 5/60/20 18/57/34 35/53/21
f 8/58/35 20/61/12 38/59/43
f 72/62/44 59/63/45 56/64/46
f 68/65/47 71/66/48 58/67/49
f 59/63/45 68/65/47 56/64/46
f 69/68/50 70/69/51 57/70/52
f 39/51/39 35/24/21 22/55/42
f 41/71/36 36/26/22 44/52/40
f 40/54/41 38/59/43 46/72/53
f 38/59/43 42/73/38 46/72/53
f 57/70/52 52/74/54 65/75/55
f 55/76/56 43/77/57 63/78/58
f 53/79/59 57/70/52 65/75/55
f 58/67/49 53/79/59 66/80/60
f 70/69/51 73/81/61 55/76/56
f 71/66/48 74/82/62 58/67/49
f 74/82/62 69/68/50 57/70/52
f 73/81/61 72/62/44 55/76/56
f 67/83/63 66/80/60 65/75/55
f 63/78/58 67/83/63 65/75/55
f 51/84/64 64/85/65 63/78/58
f 64/85/65 62/86/66 66/80/60
f 56/64/46 54/87/67 64/85/65
f 54/87/67 58/67/49 66/80/60
f 43/77/57 56/64/46 64/85/65
f 52/74/54 55/76/56 63/78/58
f 22/55/42 48/88/68 59/63/45
f 46/72/53 50/89/69 71/66/48
f 48/88/68 46/72/53 59/63/45
f 49/90/70 44/52/40 69/68/50
f 44/52/40 47/91/71 73/81/61
f 50/89/69 45/49/37 71/66/48
f 45/49/37 49/90/70 69/68/50
f 47/91/71 22/55/42 73/81/61
f 12/2/2 3/92/31 14/3/3
f 19/5/5 41/48/36 37/6/6
f 28/93/29 31/7/7 6/9/9
f 29/44/32 32/10/10 7/12/4
f 20/14/12 8/47/35 30/15/13
f 10/17/15 4/94/72 16/18/16
f 4/95/72 10/17/15 14/3/3
f 9/20/18 21/1/1 10/17/15
f 21/1/1 9/20/18 12/2/2
f 39/51/39 17/22/8 35/24/21
f 17/22/8 39/51/39 36/26/22
f 42/50/38 20/27/12 37/6/6
f 2/96/19 9/28/18 13/30/24
f 11/31/25 23/29/23 9/28/18
f 5/33/20 17/8/8 31/7/7
f 3/43/31 12/34/2 15/36/28
f 13/38/24 24/35/27 12/34/2
f 32/10/10 28/39/29 19/11/5
f 4/94/72 14/41/3 16/18/16
f 15/36/28 25/42/30 14/41/3
f 33/13/11 29/44/32 20/14/12
f 30/15/13 34/45/33 16/18/16
f 34/45/33 27/32/26 26/16/14
f 26/16/14 11/31/25 10/17/15
f 31/7/7 28/93/29 13/30/24
f 32/10/10 29/44/32 15/36/28
f 16/18/16 25/42/30 30/15/13
f 23/29/23 11/31/25 31/7/7
f 28/39/29 32/10/10 24/35/27
f 29/44/32 33/13/11 25/42/30
f 34/45/33 30/15/13 8/47/35
f 27/32/26 34/45/33 18/46/34
f 41/48/36 49/90/70 45/49/37
f 50/89/69 42/50/38 45/49/37
f 39/51/39 47/91/71 44/52/40
f 40/54/41 48/88/68 22/55/42
f 41/71/36 19/56/5 36/26/22
f 40/54/41 18/57/34 38/59/43
f 18/57/34 40/54/41 35/53/21
f 20/61/12 42/73/38 38/59/43
f 43/77/57 72/62/44 56/64/46
f 54/87/67 68/65/47 58/67/49
f 68/65/47 54/87/67 56/64/46
f 70/69/51 52/74/54 57/70/52
f 47/91/71 39/51/39 22/55/42
f 49/90/70 41/71/36 44/52/40
f 48/88/68 40/54/41 46/72/53
f 42/73/38 50/89/69 46/72/53
f 52/74/54 60/97/73 65/75/55
f 43/77/57 51/84/64 63/78/58
f 61/98/74 53/79/59 65/75/55
f 53/79/59 61/98/74 66/80/60
f 52/74/54 70/69/51 55/76/56
f 74/82/62 53/79/59 58/67/49
f 53/79/59 74/82/62 57/70/52
f 72/62/44 43/77/57 55/76/56
f 66/80/60 61/98/74 65/75/55
f 60/97/73 63/78/58 65/75/55
f 64/85/65 67/83/63 63/78/58
f 67/83/63 64/85/65 66/80/60
f 54/87/67 62/86/66 64/85/65
f 62/86/66 54/87/67 66/80/60
f 51/84/64 43/77/57 64/85/65
f 60/97/73 52/74/54 63/78/58
f 72/62/44 22/55/42 59/63/45
f 68/65/47 46/72/53 71/66/48
f 46/72/53 68/65/47 59/63/45
f 44/52/40 70/69/51 69/68/50
f 70/69/51 44/52/40 73/81/61
f 45/49/37 74/82/62 71/66/48
f 74/82/62 45/49/37 69/68/50
f 22/55/42 72/62/44 73/81/61
