# Blender v2.74 (sub 0) OBJ File: 'ConcreteCylinder.blend'
# www.blender.org
o Cylinder
v -0.000000 -1.108942 -1.004467
v 0.710265 -1.108942 -0.710265
v 1.004467 -1.108942 0.000000
v 0.710265 -1.108942 0.710265
v -0.000000 -1.108942 1.004467
v -0.710266 -1.108942 0.710265
v -1.004467 -1.108942 -0.000000
v -0.710266 -1.108942 -0.710265
v 0.000000 0.845870 -1.000000
v 0.000000 1.000000 -0.833171
v 0.000000 0.922935 -0.977649
v 0.000000 0.979351 -0.916585
v 0.707107 0.845870 -0.707107
v 0.589141 1.000000 -0.589141
v 0.691302 0.922935 -0.691302
v 0.648124 0.979351 -0.648124
v 1.000000 0.845870 0.000000
v 0.833171 1.000000 0.000000
v 0.977649 0.922935 0.000000
v 0.916585 0.979351 0.000000
v 0.707107 0.845870 0.707107
v 0.589141 1.000000 0.589141
v 0.691302 0.922935 0.691302
v 0.648124 0.979351 0.648124
v -0.000000 0.845870 1.000000
v -0.000000 1.000000 0.833171
v -0.000000 0.922935 0.977649
v -0.000000 0.979351 0.916585
v -0.707107 0.845870 0.707107
v -0.589141 1.000000 0.589141
v -0.691302 0.922935 0.691302
v -0.648124 0.979351 0.648124
v -1.000000 0.845870 -0.000000
v -0.833171 1.000000 -0.000000
v -0.977649 0.922935 -0.000000
v -0.916585 0.979351 -0.000000
v -0.707107 0.845870 -0.707107
v -0.589141 1.000000 -0.589141
v -0.691302 0.922935 -0.691302
v -0.648124 0.979351 -0.648124
vt 0.388402 0.774635
vt 0.619217 0.774583
vt 0.690166 0.959119
vt 0.772694 0.376699
vt 0.602400 0.222745
vt 0.690157 0.040874
vt 0.377653 0.231763
vt 0.309800 0.040891
vt 0.224258 0.393714
vt 0.040874 0.309844
vt 0.228656 0.616392
vt 0.040874 0.690175
vt 0.309808 0.959126
vt 0.773676 0.607070
vt 0.959105 0.309837
vt 0.673272 0.569577
vt 0.425615 0.676628
vt 0.324639 0.571824
vt 0.605770 0.746826
vt 0.743878 0.596259
vt 0.591654 0.717302
vt 0.711663 0.584255
vt 0.575447 0.684372
vt 0.744998 0.390195
vt 0.715540 0.404299
vt 0.592506 0.252527
vt 0.581503 0.284449
vt 0.682522 0.420316
vt 0.568620 0.321685
vt 0.391449 0.260072
vt 0.406051 0.290798
vt 0.253917 0.404151
vt 0.285842 0.415648
vt 0.423256 0.327222
vt 0.288128 0.588846
vt 0.323726 0.429206
vt 0.257202 0.603077
vt 0.399443 0.745287
vt 0.411473 0.713731
vt 0.959095 0.690144
vn -0.700400 0.137200 -0.700400
vn 0.000000 0.137200 -0.990500
vn 0.000000 0.002300 -1.000000
vn 0.990500 0.137200 0.000000
vn 0.700400 0.137200 0.700400
vn 0.707100 0.002300 0.707100
vn 0.000000 0.137200 0.990500
vn 0.000000 0.002300 1.000000
vn -0.700400 0.137200 0.700400
vn -0.707100 0.002300 0.707100
vn -0.990500 0.137200 0.000000
vn -1.000000 0.002300 0.000000
vn -0.707100 0.002300 -0.707100
vn 0.700400 0.137200 -0.700400
vn 1.000000 0.002300 0.000000
vn 0.106500 0.988600 -0.106500
vn -0.106500 0.988600 -0.106500
vn -0.150600 0.988600 0.000000
vn 0.000000 0.498300 -0.867000
vn 0.613000 0.498300 -0.613000
vn 0.000000 0.854400 -0.519500
vn 0.367400 0.854400 -0.367400
vn 0.000000 0.988600 -0.150600
vn 0.867000 0.498300 0.000000
vn 0.519500 0.854400 0.000000
vn 0.613000 0.498300 0.613000
vn 0.367400 0.854400 0.367400
vn 0.150600 0.988600 0.000000
vn 0.106500 0.988600 0.106500
vn 0.000000 0.498300 0.867000
vn 0.000000 0.854400 0.519500
vn -0.613000 0.498300 0.613000
vn -0.367400 0.854400 0.367400
vn 0.000000 0.988600 0.150600
vn -0.519500 0.854400 0.000000
vn -0.106500 0.988600 0.106500
vn -0.867000 0.498300 0.000000
vn -0.613000 0.498300 -0.613000
vn -0.367400 0.854400 -0.367400
vn 0.707100 0.002300 -0.707100
s 1
f 37/1/1 9/2/2 1/3/3
f 17/4/4 21/5/5 4/6/6
f 21/5/5 25/7/7 5/8/8
f 25/7/7 29/9/9 6/10/10
f 29/9/9 33/11/11 7/12/12
f 33/11/11 37/1/1 8/13/13
f 13/14/14 17/4/4 3/15/15
f 14/16/16 38/17/17 34/18/18
f 9/2/2 11/19/19 15/20/20
f 11/19/19 12/21/21 16/22/22
f 16/22/22 12/21/21 10/23/23
f 13/14/14 15/20/20 19/24/24
f 15/20/20 16/22/22 20/25/25
f 20/25/25 16/22/22 14/16/16
f 17/4/4 19/24/24 23/26/26
f 19/24/24 20/25/25 24/27/27
f 20/25/25 18/28/28 22/29/29
f 21/5/5 23/26/26 27/30/30
f 27/30/30 23/26/26 24/27/27
f 28/31/31 24/27/27 22/29/29
f 25/7/7 27/30/30 31/32/32
f 27/30/30 28/31/31 32/33/33
f 32/33/33 28/31/31 26/34/34
f 33/11/11 29/9/9 31/32/32
f 31/32/32 32/33/33 36/35/35
f 36/35/35 32/33/33 30/36/36
f 33/11/11 35/37/37 39/38/38
f 35/37/37 36/35/35 40/39/39
f 36/35/35 34/18/18 38/17/17
f 37/1/1 39/38/38 11/19/19
f 11/19/19 39/38/38 40/39/39
f 12/21/21 40/39/39 38/17/17
f 9/2/2 13/14/14 2/40/40
f 8/13/13 37/1/1 1/3/3
f 3/15/15 17/4/4 4/6/6
f 4/6/6 21/5/5 5/8/8
f 5/8/8 25/7/7 6/10/10
f 6/10/10 29/9/9 7/12/12
f 7/12/12 33/11/11 8/13/13
f 2/40/40 13/14/14 3/15/15
f 22/29/29 18/28/28 14/16/16
f 14/16/16 26/34/34 22/29/29
f 14/16/16 34/18/18 30/36/36
f 14/16/16 10/23/23 38/17/17
f 30/36/36 26/34/34 14/16/16
f 13/14/14 9/2/2 15/20/20
f 15/20/20 11/19/19 16/22/22
f 14/16/16 16/22/22 10/23/23
f 17/4/4 13/14/14 19/24/24
f 19/24/24 15/20/20 20/25/25
f 18/28/28 20/25/25 14/16/16
f 21/5/5 17/4/4 23/26/26
f 23/26/26 19/24/24 24/27/27
f 24/27/27 20/25/25 22/29/29
f 25/7/7 21/5/5 27/30/30
f 28/31/31 27/30/30 24/27/27
f 26/34/34 28/31/31 22/29/29
f 29/9/9 25/7/7 31/32/32
f 31/32/32 27/30/30 32/33/33
f 30/36/36 32/33/33 26/34/34
f 35/37/37 33/11/11 31/32/32
f 35/37/37 31/32/32 36/35/35
f 34/18/18 36/35/35 30/36/36
f 37/1/1 33/11/11 39/38/38
f 39/38/38 35/37/37 40/39/39
f 40/39/39 36/35/35 38/17/17
f 9/2/2 37/1/1 11/19/19
f 12/21/21 11/19/19 40/39/39
f 10/23/23 12/21/21 38/17/17
f 1/3/3 9/2/2 2/40/40
