# Blender v2.68 (sub 0) OBJ File: 'OwlCarSteeringWheel1.blend'
# www.blender.org
mtllib OwlCarSteeringWheel.mtl
o Cylinder.004_Cylinder.001
v 0.011197 2.757566 0.282275
v -0.137391 2.517415 0.442225
v -0.266030 2.312073 0.252501
v -0.192083 2.431282 0.293896
v -0.313364 2.239148 0.131450
v -0.044955 2.677815 0.496314
v -0.095705 2.459634 0.489552
v -0.230383 2.247492 0.282268
v -0.282724 2.165045 0.138863
v -0.003067 2.692379 0.229508
v -0.111608 2.522029 0.361294
v -0.241707 2.311344 0.156836
v -0.164883 2.437490 0.242423
v -0.054581 2.611832 0.396576
v 0.039876 2.801549 0.005183
v 0.011197 2.757566 -0.282405
v -0.137391 2.517415 -0.442355
v -0.266030 2.312073 -0.252632
v -0.329660 2.212455 0.004244
v -0.192083 2.431282 -0.294027
v -0.313364 2.239148 -0.131580
v -0.044955 2.677815 -0.496445
v -0.230383 2.247492 -0.282399
v -0.302298 2.134213 0.002780
v -0.282724 2.165045 -0.138994
v 0.014647 2.720283 0.002384
v -0.003067 2.692379 -0.229638
v -0.111608 2.522029 -0.361425
v -0.241707 2.311344 -0.156966
v -0.274004 2.257605 0.002969
v -0.164883 2.437490 -0.242554
v -0.054581 2.611832 -0.396706
v -0.145842 2.534491 0.001878
v 0.133018 2.693795 0.289316
v -0.028726 2.439019 0.467671
v -0.163922 2.226062 0.259629
v -0.083864 2.352166 0.307914
v -0.211512 2.151098 0.127268
v 0.074897 2.612781 0.530561
v 0.090592 2.753084 0.298605
v -0.150441 2.373416 0.330391
v 0.020132 2.652636 0.558722
v 0.158526 2.733974 0.004963
v 0.133018 2.693795 -0.289446
v -0.028726 2.439019 -0.467802
v -0.163922 2.226062 -0.259759
v -0.230243 2.121594 0.004963
v -0.083864 2.352166 -0.308044
v -0.211512 2.151098 -0.127398
v 0.074897 2.612781 -0.530691
v 0.116754 2.794295 0.005470
v 0.090592 2.753084 -0.298736
v -0.095705 2.459634 -0.489683
v -0.150441 2.373416 -0.330521
v 0.020132 2.652636 -0.558852
v -0.057095 2.446091 0.005769
vt 0.837243 0.715330
vt 0.862228 0.662378
vt 0.992540 0.763362
vt 0.724239 0.618439
vt 0.753505 0.583993
vt 0.728232 0.111507
vt 0.992540 0.067301
vt 0.992540 0.145240
vt 0.716433 0.457748
vt 0.582289 0.365197
vt 0.767205 0.439793
vt 0.843106 0.570620
vt 0.531099 0.196773
vt 0.661469 0.350613
vt 0.992540 0.357749
vt 0.630477 0.255959
vt 0.780233 0.172508
vt 0.992540 0.690296
vt 0.992540 0.625918
vt 0.292772 0.984162
vt 0.269626 0.982535
vt 0.303047 0.724808
vt 0.446696 0.567036
vt 0.600864 0.611292
vt 0.606293 0.986332
vt 0.798245 0.772906
vt 0.868624 0.878064
vt 0.895817 0.988595
vt 0.351028 0.751737
vt 0.679954 0.735433
vt 0.428374 0.500572
vt 0.621776 0.555549
vt 0.992540 0.008733
vt 0.727866 0.053538
vt 0.468509 0.169630
vt 0.687913 0.487369
vt 0.537859 0.391180
vt 0.710247 0.694748
vt 0.843244 0.736721
vt 0.930406 0.864862
vt 0.962468 0.986631
vn -0.568255 -0.712485 0.411573
vn -0.963225 0.186621 0.193243
vn -0.633137 -0.774010 0.003449
vn -0.405652 -0.458663 0.790582
vn -0.891201 0.253761 0.375896
vn -0.562365 0.819330 0.111393
vn -0.504105 0.863613 0.000702
vn -0.885098 0.465377 0.000275
vn -0.874416 0.458174 0.159459
vn -0.914823 0.251228 0.316141
vn -0.823054 0.564531 -0.061922
vn -0.797266 0.598956 -0.074709
vn -0.611530 0.676809 0.409772
vn -0.805383 0.586810 -0.083529
vn -0.846767 0.531938 0.000580
vn -0.847560 0.509781 -0.147313
vn -0.896054 0.443251 -0.024018
vn -0.983337 0.181585 0.004456
vn -0.755089 0.655599 -0.000275
vn -0.569475 -0.714103 -0.407056
vn -0.963866 0.183905 -0.192602
vn -0.405652 -0.458663 -0.790582
vn -0.891201 0.253761 -0.375896
vn -0.561235 0.820276 -0.109989
vn -0.896359 0.442610 0.023865
vn -0.874416 0.458174 -0.159459
vn -0.822687 0.564989 0.062624
vn -0.914823 0.251228 -0.316141
vn -0.796716 0.599689 0.074648
vn -0.805200 0.586993 0.083987
vn -0.611530 0.676809 -0.409772
vn -0.847591 0.509690 0.147526
vn 0.999512 0.030641 0.000946
vn 0.506577 0.862178 0.003082
vn 0.457411 0.836055 0.302927
vn 0.790826 -0.106479 0.602680
vn 0.487228 -0.728050 0.482192
vn 0.848140 -0.529740 -0.000855
vn 0.484054 -0.732597 0.478500
vn 0.426374 -0.873440 0.235054
vn 0.366100 -0.930509 0.009949
vn 0.985260 -0.005158 0.170904
vn 0.643880 -0.693197 0.323740
vn 0.076083 0.395734 0.915189
vn 0.985534 -0.003601 -0.169317
vn 0.790735 -0.106296 -0.602832
vn 0.486740 -0.728050 -0.482711
vn 0.076083 0.395734 -0.915189
vn 0.642842 -0.693625 -0.324961
vn -0.420179 -0.436598 -0.795465
vn 0.483383 -0.732780 -0.478896
vn 0.423719 -0.875484 -0.232276
vn -0.418836 -0.453597 0.786615
vn -0.420179 -0.436598 0.795465
vn 0.458022 0.836756 -0.299997
vn -0.418836 -0.453597 -0.786615
usemtl Material.002
s 1
f 9/1/1 5/2/2 24/3/3
f 8/4/4 3/5/5 9/1/1
f 1/6/6 15/7/7 26/8/8
f 4/9/9 2/10/10 13/11/11
f 3/5/5 4/9/9 12/12/12
f 2/10/10 6/13/13 11/14/14
f 13/11/11 11/14/14 33/15/15
f 11/14/14 14/16/16 33/15/15
f 10/17/17 26/8/8 33/15/15
f 12/12/12 13/11/11 33/15/15
f 19/18/18 5/2/2 12/12/12
f 5/2/2 3/5/5 12/12/12
f 30/19/19 12/12/12 33/15/15
f 14/16/16 10/17/17 33/15/15
f 6/13/13 1/6/6 10/17/17
f 25/1/20 24/3/3 21/2/21
f 23/4/22 25/1/20 18/5/23
f 16/6/24 27/17/25 26/8/8
f 20/9/26 31/11/27 17/10/28
f 18/5/23 29/12/29 20/9/26
f 17/10/28 28/14/30 22/13/31
f 31/11/27 33/15/15 28/14/30
f 28/14/30 33/15/15 32/16/32
f 27/17/25 33/15/15 26/8/8
f 29/12/29 33/15/15 31/11/27
f 19/18/18 30/19/19 29/12/29
f 21/2/21 29/12/29 18/5/23
f 30/19/19 33/15/15 29/12/29
f 32/16/32 33/15/15 27/17/25
f 22/13/31 32/16/32 27/17/25
f 43/20/33 51/21/34 40/22/35
f 39/23/36 35/24/37 56/25/38
f 36/26/39 38/27/40 56/25/38
f 38/27/40 47/28/41 56/25/38
f 43/20/33 34/29/42 56/25/38
f 35/24/37 37/30/43 56/25/38
f 37/30/43 36/26/39 56/25/38
f 34/29/42 39/23/36 56/25/38
f 34/29/42 40/22/35 42/31/44
f 43/20/33 44/29/45 51/21/34
f 50/23/46 45/24/47 55/31/48
f 45/24/47 48/30/49 53/32/50
f 50/23/46 56/25/38 45/24/47
f 46/26/51 56/25/38 49/27/52
f 49/27/52 56/25/38 47/28/41
f 43/20/33 56/25/38 44/29/45
f 45/24/47 56/25/38 48/30/49
f 48/30/49 56/25/38 46/26/51
f 44/29/45 56/25/38 50/23/46
f 44/29/45 50/23/46 55/31/48
f 51/33/34 15/7/7 40/34/35
f 42/35/44 6/13/13 2/10/10
f 41/36/53 4/9/9 8/4/4
f 7/37/54 2/10/10 4/9/9
f 40/34/35 1/6/6 42/35/44
f 51/33/34 52/34/55 15/7/7
f 55/35/48 53/37/50 17/10/28
f 54/36/56 23/4/22 20/9/26
f 53/37/50 54/36/56 20/9/26
f 52/34/55 55/35/48 16/6/24
f 39/23/36 42/31/44 35/24/37
f 37/30/43 41/38/53 8/39/4
f 38/27/40 9/40/1 24/41/3
f 35/24/37 7/32/54 37/30/43
f 36/26/39 8/39/4 38/27/40
f 48/30/49 46/26/51 23/39/22
f 49/27/52 47/28/41 24/41/3
f 46/26/51 49/27/52 23/39/22
f 5/2/2 19/18/18 24/3/3
f 3/5/5 5/2/2 9/1/1
f 10/17/17 1/6/6 26/8/8
f 2/10/10 11/14/14 13/11/11
f 4/9/9 13/11/11 12/12/12
f 6/13/13 14/16/16 11/14/14
f 30/19/19 19/18/18 12/12/12
f 14/16/16 6/13/13 10/17/17
f 24/3/3 19/18/18 21/2/21
f 25/1/20 21/2/21 18/5/23
f 15/7/7 16/6/24 26/8/8
f 31/11/27 28/14/30 17/10/28
f 29/12/29 31/11/27 20/9/26
f 28/14/30 32/16/32 22/13/31
f 21/2/21 19/18/18 29/12/29
f 16/6/24 22/13/31 27/17/25
f 34/29/42 43/20/33 40/22/35
f 39/23/36 34/29/42 42/31/44
f 44/29/45 52/22/55 51/21/34
f 45/24/47 53/32/50 55/31/48
f 48/30/49 54/38/56 53/32/50
f 52/22/55 44/29/45 55/31/48
f 15/7/7 1/6/6 40/34/35
f 7/37/54 42/35/44 2/10/10
f 4/9/9 3/5/5 8/4/4
f 41/36/53 7/37/54 4/9/9
f 1/6/6 6/13/13 42/35/44
f 52/34/55 16/6/24 15/7/7
f 22/13/31 55/35/48 17/10/28
f 23/4/22 18/5/23 20/9/26
f 17/10/28 53/37/50 20/9/26
f 55/35/48 22/13/31 16/6/24
f 42/31/44 7/32/54 35/24/37
f 36/26/39 37/30/43 8/39/4
f 47/28/41 38/27/40 24/41/3
f 7/32/54 41/38/53 37/30/43
f 8/39/4 9/40/1 38/27/40
f 54/38/56 48/30/49 23/39/22
f 25/40/20 49/27/52 24/41/3
f 49/27/52 25/40/20 23/39/22
o Cylinder.005
v 0.315581 2.150554 0.061678
v -0.143523 2.373412 0.102166
v 0.301588 2.127160 -0.000435
v -0.165449 2.336754 0.004835
v 0.313385 2.148810 -0.063626
v -0.146964 2.370680 -0.094186
v 0.042360 2.305066 0.066066
v 0.027977 2.281019 0.002220
v 0.040103 2.303274 -0.062734
v 0.347165 2.205289 0.086327
v -0.094030 2.459182 0.140791
v 0.377840 2.259302 0.059074
v -0.045963 2.543820 0.098085
v 0.389636 2.280952 -0.004118
v -0.027478 2.577746 -0.000937
v 0.375644 2.257558 -0.066231
v -0.049404 2.541088 -0.098267
v 0.344059 2.202823 -0.090880
v -0.098897 2.455318 -0.136893
v 0.074826 2.361328 0.091403
v 0.106356 2.416847 0.063389
v 0.118482 2.439102 -0.001566
v 0.104099 2.415055 -0.065411
v 0.071633 2.358793 -0.090748
v 0.293742 1.465451 0.602025
v 0.711944 1.505125 0.602025
v 0.327760 2.175465 0.602025
v 0.671692 2.349361 0.602025
v 0.208568 1.871285 0.632900
v 0.733058 1.927216 0.631662
v 0.474442 2.353918 0.689985
v 0.477173 1.499525 0.685924
v 0.457600 1.900687 0.748554
v 0.683805 2.435077 0.301012
v 0.536773 2.452100 0.344992
v 0.293742 1.465451 -0.602025
v 0.711944 1.505125 -0.602025
v 0.327760 2.175465 -0.602025
v 0.671692 2.349361 -0.602025
v 0.327760 2.271632 0.000000
v 0.259342 1.465451 0.000000
v 0.734998 2.451065 0.000000
v 0.208568 1.871285 -0.632900
v 0.733058 1.927216 -0.631662
v 0.162415 1.911117 0.000000
v 0.474442 2.353918 -0.689985
v 0.477173 1.499525 -0.685924
v 0.535797 2.480554 0.000000
v 0.457600 1.900687 -0.748554
v 0.683805 2.435077 -0.301012
v 0.536773 2.452100 -0.344992
vt 0.197101 0.789928
vt 0.197101 0.998685
vt 0.162627 0.789928
vt 0.162627 0.998685
vt 0.125075 0.789928
vt 0.125075 0.998685
vt 0.087168 0.998685
vt 0.087168 0.789928
vt 0.052671 0.789928
vt 0.197101 0.539159
vt 0.162627 0.539159
vt 0.125075 0.539159
vt 0.087168 0.539159
vt 0.052671 0.539159
vt 0.052671 0.998685
vt 0.337005 0.200852
vt 0.236108 0.150214
vt 0.217502 0.007067
vt 0.214820 0.257655
vt 0.008417 0.301396
vt 0.261248 0.332977
vt 0.406952 0.309497
vt 0.393616 0.007067
vt 0.170811 0.478448
vt 0.008417 0.510127
vt 0.147558 0.389159
vt 0.306502 0.408495
vt 0.008417 0.427998
vt 0.008417 0.129333
vt 0.214348 0.007067
vt 0.508333 0.007067
vt 0.008417 0.007067
vn 0.127598 -0.049318 0.990570
vn 0.222938 -0.104434 0.969207
vn -0.225867 -0.661916 0.714713
vn -0.123234 -0.704367 0.699026
vn -0.382458 -0.923734 0.019532
vn -0.276589 -0.960784 0.018189
vn -0.147282 -0.723472 -0.674398
vn -0.250435 -0.681417 -0.687674
vn 0.092837 -0.076907 -0.992676
vn 0.024354 0.009980 0.999634
vn -0.332011 -0.607562 0.721519
vn -0.489883 -0.871517 0.020692
vn -0.356792 -0.627247 -0.692251
vn -0.010681 -0.017823 -0.999756
vn 0.470901 0.555162 0.685568
vn 0.602924 0.797479 -0.021638
vn 0.559160 0.487594 0.670461
vn 0.446333 0.535661 -0.716819
vn 0.535112 0.468459 -0.702963
vn 0.370434 0.619404 0.692129
vn 0.503555 0.863704 -0.020814
vn 0.345653 0.599750 -0.721641
vn 0.188910 -0.131443 -0.973144
vn 0.688467 0.724906 -0.022126
vn -0.023011 -0.006806 0.999695
vn -0.845576 0.043153 0.532090
vn -0.805963 -0.215552 0.551286
vn -0.848201 0.446883 0.284280
vn -0.826380 0.563097 0.000000
vn -0.230171 0.648640 0.725425
vn 0.379742 0.008850 0.925016
vn -0.026337 -0.140721 0.989685
vn 0.154515 0.974731 0.161138
vn 0.144139 0.989532 0.000000
vn -0.272469 0.947996 0.164312
vn 0.309305 0.670736 0.674062
vn -0.308695 0.951140 0.000000
vn -0.992889 0.118900 0.000000
vn -0.023011 -0.006806 -0.999695
vn -0.026337 -0.140721 -0.989685
vn -0.805963 -0.215552 -0.551286
vn -0.848201 0.446883 -0.284280
vn -0.845576 0.043153 -0.532090
vn -0.230171 0.648640 -0.725425
vn 0.379742 0.008850 -0.925016
vn 0.337107 -0.082705 -0.937803
vn 0.154515 0.974731 -0.161138
vn -0.272469 0.947996 -0.164312
vn 0.309305 0.670736 -0.674062
vn 0.337107 -0.082705 0.937803
vn -0.977142 -0.212500 0.000000
usemtl Material.002
s 1
f 76/42/57 67/43/58 63/44/59
f 63/44/59 58/45/60 64/46/61
f 64/46/61 60/47/62 62/48/63
f 65/49/64 62/48/63 80/50/65
f 66/51/66 76/42/57 57/52/67
f 57/52/67 63/44/59 59/53/68
f 59/53/68 64/46/61 61/54/69
f 61/54/69 65/49/64 74/55/70
f 76/42/57 77/44/71 67/43/58
f 77/44/71 78/46/72 69/45/73
f 78/46/72 79/49/74 73/48/75
f 79/49/74 80/50/65 73/48/75
f 66/51/66 68/52/76 76/42/57
f 68/52/76 70/53/77 77/44/71
f 70/53/77 72/54/78 78/46/72
f 72/54/78 74/55/70 79/49/74
f 67/43/58 58/45/60 63/44/59
f 58/45/60 60/47/62 64/46/61
f 65/49/64 64/46/61 62/48/63
f 62/48/63 75/56/79 80/50/65
f 76/42/57 63/44/59 57/52/67
f 63/44/59 64/46/61 59/53/68
f 64/46/61 65/49/64 61/54/69
f 65/49/64 80/50/65 74/55/70
f 77/44/71 69/45/73 67/43/58
f 78/46/72 71/47/80 69/45/73
f 71/47/80 78/46/72 73/48/75
f 80/50/65 75/56/79 73/48/75
f 68/52/76 77/44/71 76/42/57
f 70/53/77 78/46/72 77/44/71
f 72/54/78 79/49/74 78/46/72
f 74/55/70 80/50/65 79/49/74
s 2
f 89/57/81 85/58/82 81/59/83
f 83/60/84 96/61/85 85/58/82
f 87/62/86 83/60/84 85/58/82
f 86/63/87 89/57/81 88/64/88
f 90/65/89 98/66/90 91/67/91
f 84/68/92 87/62/86 89/57/81
f 84/68/92 90/65/89 87/62/86
f 91/67/91 104/69/93 96/61/85
f 85/58/82 101/70/94 81/59/83
f 87/62/86 91/67/91 96/61/85
f 105/57/95 103/64/96 92/71/97
f 94/60/98 99/58/99 96/61/85
f 102/62/100 105/57/95 99/58/99
f 100/63/101 93/72/102 103/64/96
f 106/65/103 107/67/104 98/66/90
f 95/68/105 100/63/101 105/57/95
f 95/68/105 102/62/100 106/65/103
f 107/67/104 96/61/85 104/69/93
f 99/58/99 92/71/97 101/70/94
f 102/62/100 94/60/98 96/61/85
f 88/64/88 89/57/81 81/59/83
f 96/61/85 101/70/94 85/58/82
f 89/57/81 87/62/86 85/58/82
f 82/72/106 86/63/87 88/64/88
f 98/66/90 104/69/93 91/67/91
f 86/63/87 84/68/92 89/57/81
f 90/65/89 91/67/91 87/62/86
f 101/70/94 97/73/107 81/59/83
f 83/60/84 87/62/86 96/61/85
f 99/58/99 105/57/95 92/71/97
f 99/58/99 101/70/94 96/61/85
f 94/60/98 102/62/100 99/58/99
f 105/57/95 100/63/101 103/64/96
f 107/67/104 104/69/93 98/66/90
f 102/62/100 95/68/105 105/57/95
f 102/62/100 107/67/104 106/65/103
f 92/71/97 97/73/107 101/70/94
f 107/67/104 102/62/100 96/61/85
