# Blender v2.70 (sub 1) OBJ File: 'GoldPileModel.blend'
# www.blender.org
o Cube
v 2.186089 -0.066477 -2.186089
v 2.186089 -0.066477 2.186089
v -2.186089 -0.066477 2.186089
v -2.186089 -0.066477 -2.186089
v 0.855551 1.726022 -0.854870
v 0.854870 1.726022 0.855551
v -0.855551 1.726022 0.854870
v -0.854870 1.726022 -0.855551
v 3.091597 -0.066477 -0.000000
v -0.000000 -0.066477 -3.091597
v 1.544576 0.919904 -1.544575
v 0.000000 -0.066477 3.091597
v 1.544575 0.919904 1.544576
v -3.091597 -0.066477 -0.000000
v -1.544576 0.919904 1.544575
v -1.544575 0.919904 -1.544576
v 1.209450 1.726022 0.000482
v 0.000482 1.726022 -1.209450
v -0.000482 1.726022 1.209450
v -1.209450 1.726022 -0.000481
v -0.000000 2.018020 0.000000
v 2.184359 0.919904 0.000001
v -0.000001 0.919904 2.184360
v -2.184360 0.919904 -0.000001
v 0.000000 0.919904 -2.184360
v 2.856263 -0.066477 1.183103
v -1.183103 -0.066477 -2.856263
v 1.216662 1.365431 -1.217011
v -1.183103 -0.066477 2.856263
v 1.217011 1.365431 1.216662
v -2.856263 -0.066477 -1.183103
v -1.216662 1.365431 1.217011
v -1.217011 1.365431 -1.216662
v 1.117202 1.726022 0.463282
v -0.462392 1.726022 -1.117571
v -0.463282 1.726022 1.117202
v -1.117202 1.726022 -0.463281
v 2.856263 -0.066477 -1.183103
v 1.183103 -0.066477 -2.856263
v 1.870119 0.434452 -1.870119
v 1.183103 -0.066477 2.856263
v 1.870118 0.434452 1.870119
v -2.856263 -0.066477 1.183103
v -1.870119 0.434452 1.870118
v -1.870119 0.434452 -1.870119
v 1.117571 1.726022 -0.462391
v 0.463281 1.726022 -1.117202
v 0.462391 1.726022 1.117571
v -1.117571 1.726022 0.462392
v -0.000000 1.947301 0.644610
v -0.000000 1.947301 -0.644609
v 0.644609 1.947301 0.000000
v -0.644610 1.947301 0.000000
v 2.018085 0.919904 0.835919
v 2.018085 0.919904 -0.835918
v 2.644747 0.434452 0.000000
v 1.720867 1.365431 -0.000246
v -0.835919 0.919904 2.018085
v 0.835917 0.919904 2.018085
v -0.000000 0.434452 2.644747
v 0.000246 1.365431 1.720867
v -2.018085 0.919904 -0.835919
v -2.018086 0.919904 0.835918
v -2.644747 0.434452 -0.000000
v -1.720867 1.365431 0.000246
v -0.835918 0.919904 -2.018085
v 0.835919 0.919904 -2.018085
v -0.000247 1.365431 -1.720867
v 0.000000 0.434452 -2.644747
v 0.562240 1.914041 0.557372
v -0.562240 1.914041 0.557372
v 1.589968 1.365431 0.658320
v -0.658320 1.365431 1.589968
v -1.589968 1.365431 -0.658320
v -1.012101 0.434452 -2.443428
v 0.562240 1.914041 -0.557372
v -0.562240 1.914041 -0.557372
v 2.443428 0.434452 1.012101
v 2.443428 0.434452 -1.012101
v 1.589779 1.365431 -0.658775
v -1.012101 0.434452 2.443428
v 1.012101 0.434452 2.443428
v 0.658775 1.365431 1.589779
v -2.443428 0.434452 -1.012101
v -2.443428 0.434452 1.012101
v -1.589779 1.365431 0.658775
v -0.658775 1.365431 -1.589779
v 0.658319 1.365431 -1.589968
v 1.012101 0.434452 -2.443428
vt 0.869233 0.425792
vt 0.668255 0.244740
vt 0.829497 -0.000325
vt 0.163754 0.004203
vt 0.379265 -0.086661
vt 0.613088 -0.088279
vt 1.402434 0.678931
vt 1.088261 0.613061
vt 1.086660 0.379219
vt 0.678962 -0.402440
vt -0.402412 0.321046
vt -0.088238 0.386918
vt -0.086637 0.620762
vt -0.905063 1.443125
vt -1.280891 1.689970
vt -1.600713 0.917852
vt 0.331770 0.755242
vt 0.500012 0.499991
vt 0.755267 0.668236
vt 0.130791 0.574189
vt -0.000291 0.170512
vt 2.160418 0.826655
vt 1.757327 0.743599
vt 1.754831 0.243866
vt 1.443147 1.905045
vt 1.216867 1.561279
vt 1.568424 1.206194
vt 1.011693 1.264567
vt 0.836273 0.995776
vt 1.000316 0.829466
vt 0.826691 -1.160423
vt 0.743631 -0.757332
vt 0.243897 -0.754833
vt 1.905074 -0.443133
vt 1.561306 -0.216861
vt 1.206227 -0.568423
vt 1.264597 -0.011692
vt 0.995814 0.163719
vt -1.160406 0.173312
vt -0.757310 0.256374
vt -0.754816 0.756114
vt -0.443108 -0.905077
vt -0.216834 -0.561305
vt -0.568398 -0.206224
vt -0.011663 -0.264589
vt -0.561289 1.216848
vt -0.402156 0.680095
vt 0.256400 1.757321
vt -0.206203 1.568414
vt -0.010622 1.265303
vt 0.173345 2.160418
vt 0.082151 2.600720
vt -0.689953 2.280907
vt 0.422628 0.131424
vt 0.244758 0.331745
vt 1.402176 0.319886
vt 1.265313 1.010616
vt 0.319919 -0.402178
vt 1.010647 -0.265318
vt -0.265288 -0.010640
vt -1.159022 0.833618
vt -0.437202 1.909029
vt 0.577398 0.868557
vt 0.386939 1.088261
vt 0.170527 1.000308
vt 0.004210 0.836263
vt 2.600708 0.917851
vt 2.159029 0.166362
vt 2.280905 1.689929
vt 1.909034 1.437187
vt 1.689995 2.280863
vt 0.917895 2.600704
vt 0.833650 2.159018
vt 0.756137 1.754815
vt 0.680110 1.402159
vt 0.620763 1.086642
vt 0.917892 -1.600718
vt 0.166392 -1.159035
vt 1.689976 -1.280898
vt 1.437225 -0.909030
vt 2.280895 -0.689970
vt 2.600709 0.082129
vt -1.280879 -0.689980
vt -0.909009 -0.437226
vt -0.689948 -1.280902
vt 0.082159 -1.600720
vt -0.264576 1.011676
vt 0.321066 1.402425
vt -1.600705 0.082109
vn 0.217963 0.951506 0.217017
vn 0.000031 0.970214 0.242134
vn -0.000183 0.878353 0.477981
vn -0.440138 0.879055 0.183020
vn -0.237556 0.941923 0.237342
vn -0.182989 0.879421 0.439406
vn 0.593127 0.766717 0.245552
vn 0.440046 0.879025 0.183447
vn 0.237342 0.941923 0.237556
vn -0.245552 0.766717 0.593127
vn -0.593127 0.766717 -0.245552
vn -0.440046 0.879025 -0.183447
vn -0.237342 0.941923 -0.237556
vn -0.281961 0.676015 -0.680776
vn -0.285574 0.665677 -0.689436
vn -0.527671 0.665677 -0.527671
vn -0.000031 0.970214 -0.242134
vn 0.000000 1.000000 0.000000
vn 0.241493 0.970397 -0.000031
vn -0.217963 0.951506 -0.217017
vn -0.478408 0.878109 -0.000183
vn 0.680776 0.676015 0.281961
vn 0.656758 0.703269 0.272042
vn 0.502670 0.703269 0.502670
vn 0.680776 0.676015 -0.281961
vn 0.656758 0.703269 -0.272042
vn 0.710898 0.703269 0.000000
vn 0.593066 0.766717 -0.245766
vn 0.440138 0.879055 -0.183020
vn 0.478408 0.878109 0.000183
vn -0.281961 0.676015 0.680776
vn -0.272042 0.703269 0.656758
vn -0.502670 0.703269 0.502670
vn 0.281961 0.676015 0.680776
vn 0.272042 0.703269 0.656758
vn 0.000000 0.703269 0.710898
vn 0.245766 0.766717 0.593066
vn 0.182562 0.879482 0.439497
vn -0.680776 0.676015 -0.281961
vn -0.656758 0.703269 -0.272042
vn -0.502670 0.703269 -0.502670
vn -0.680776 0.676015 0.281961
vn -0.656758 0.703269 0.272042
vn -0.710898 0.703269 0.000000
vn -0.593066 0.766717 0.245766
vn -0.272042 0.703269 -0.656758
vn -0.453993 0.766717 -0.453871
vn 0.272042 0.703269 -0.656758
vn 0.000000 0.703269 -0.710898
vn -0.000092 0.766717 -0.641957
vn 0.281961 0.676015 -0.680776
vn 0.285574 0.665677 -0.689436
vn 0.000000 0.665677 -0.746240
vn -0.218024 0.951506 0.216956
vn -0.241493 0.970397 0.000031
vn 0.453993 0.766717 0.453871
vn 0.641957 0.766717 -0.000092
vn -0.453871 0.766717 0.453993
vn 0.000092 0.766717 0.641957
vn -0.641957 0.766717 0.000092
vn -0.521043 0.676015 -0.521043
vn 0.000000 0.676015 -0.736839
vn 0.218024 0.951506 -0.216956
vn 0.182989 0.879421 -0.439406
vn 0.000183 0.878353 -0.477981
vn -0.182562 0.879482 -0.439497
vn 0.689435 0.665677 0.285574
vn 0.521043 0.676015 0.521043
vn 0.746240 0.665677 -0.000000
vn 0.736839 0.676015 0.000000
vn 0.689436 0.665677 -0.285574
vn 0.527671 0.665677 -0.527671
vn 0.521043 0.676015 -0.521043
vn 0.502670 0.703269 -0.502670
vn 0.453871 0.766717 -0.453993
vn 0.237556 0.941923 -0.237342
vn -0.285574 0.665677 0.689436
vn -0.521043 0.676015 0.521043
vn -0.000000 0.665677 0.746240
vn 0.000000 0.676015 0.736839
vn 0.285574 0.665677 0.689436
vn 0.527671 0.665677 0.527671
vn -0.746240 0.665677 0.000000
vn -0.736839 0.676015 0.000000
vn -0.689435 0.665677 0.285574
vn -0.527671 0.665677 0.527671
vn -0.245766 0.766717 -0.593066
vn 0.245552 0.766717 -0.593127
vn -0.689435 0.665677 -0.285574
s 1
f 70/1/1 50/2/2 19/3/3
f 49/4/4 7/5/5 36/6/6
f 72/7/7 34/8/8 6/9/9
f 73/10/10 36/6/6 7/5/5
f 74/11/11 37/12/12 8/13/13
f 75/14/14 27/15/15 4/16/16
f 51/17/17 21/18/18 52/19/19
f 77/20/20 37/12/12 20/21/21
f 78/22/22 54/23/23 13/24/24
f 79/25/25 55/26/26 22/27/27
f 80/28/28 46/29/29 17/30/30
f 81/31/31 58/32/32 15/33/33
f 82/34/34 59/35/35 23/36/36
f 83/37/37 48/38/38 19/3/3
f 84/39/39 62/40/40 16/41/41
f 85/42/42 63/43/43 24/44/44
f 86/45/45 49/4/4 20/21/21
f 66/46/46 16/41/41 33/47/47
f 67/48/48 25/49/49 68/50/50
f 89/51/51 39/52/52 10/53/53
f 34/8/8 70/1/1 48/38/38
f 17/30/30 52/19/19 70/1/1
f 52/19/19 21/18/18 50/2/2
f 71/54/54 36/6/6 19/3/3
f 53/55/55 71/54/54 50/2/2
f 20/21/21 49/4/4 71/54/54
f 72/7/7 30/56/56 13/24/24
f 57/57/57 72/7/7 54/23/23
f 57/57/57 17/30/30 34/8/8
f 73/10/10 32/58/58 15/33/33
f 61/59/59 73/10/10 58/32/32
f 61/59/59 19/3/3 36/6/6
f 74/11/11 33/47/47 16/41/41
f 65/60/60 74/11/11 62/40/40
f 65/60/60 20/21/21 37/12/12
f 66/46/46 75/14/14 45/61/61
f 25/49/49 69/62/62 75/14/14
f 10/53/53 27/15/15 75/14/14
f 76/63/63 52/19/19 17/30/30
f 47/64/64 76/63/63 46/29/29
f 18/65/65 51/17/17 76/63/63
f 51/17/17 77/20/20 53/55/55
f 18/65/65 35/66/66 77/20/20
f 35/66/66 8/13/13 37/12/12
f 26/67/67 78/22/22 42/68/68
f 9/69/69 56/70/70 78/22/22
f 56/70/70 22/27/27 54/23/23
f 38/71/71 79/25/25 56/70/70
f 1/72/72 40/73/73 79/25/25
f 40/73/73 11/74/74 55/26/26
f 80/28/28 57/57/57 22/27/27
f 28/75/75 80/28/28 55/26/26
f 28/75/75 5/76/76 46/29/29
f 29/77/77 81/31/31 44/78/78
f 12/79/79 60/80/80 81/31/31
f 60/80/80 23/36/36 58/32/32
f 41/81/81 82/34/34 60/80/80
f 2/82/82 42/68/68 82/34/34
f 42/68/68 13/24/24 59/35/35
f 83/37/37 61/59/59 23/36/36
f 30/56/56 83/37/37 59/35/35
f 30/56/56 6/9/9 48/38/38
f 84/39/39 45/61/61 4/16/16
f 14/83/83 64/84/84 84/39/39
f 64/84/84 24/44/44 62/40/40
f 43/85/85 85/42/42 64/84/84
f 3/86/86 44/78/78 85/42/42
f 44/78/78 15/33/33 63/43/43
f 86/45/45 65/60/60 24/44/44
f 32/58/58 86/45/45 63/43/43
f 32/58/58 7/5/5 49/4/4
f 35/66/66 87/87/87 33/47/47
f 18/65/65 68/50/50 87/87/87
f 25/49/49 66/46/46 87/87/87
f 47/64/64 88/88/88 68/50/50
f 5/76/76 28/75/75 88/88/88
f 11/74/74 67/48/48 88/88/88
f 67/48/48 89/51/51 69/62/62
f 11/74/74 40/73/73 89/51/51
f 40/73/73 1/72/72 39/52/52
f 48/38/38 70/1/1 19/3/3
f 71/54/54 49/4/4 36/6/6
f 30/56/56 72/7/7 6/9/9
f 32/58/58 73/10/10 7/5/5
f 33/47/47 74/11/11 8/13/13
f 45/61/61 75/14/14 4/16/16
f 76/63/63 51/17/17 52/19/19
f 53/55/55 77/20/20 20/21/21
f 42/68/68 78/22/22 13/24/24
f 56/70/70 79/25/25 22/27/27
f 57/57/57 80/28/28 17/30/30
f 44/78/78 81/31/31 15/33/33
f 60/80/80 82/34/34 23/36/36
f 61/59/59 83/37/37 19/3/3
f 45/61/61 84/39/39 16/41/41
f 64/84/84 85/42/42 24/44/44
f 65/60/60 86/45/45 20/21/21
f 87/87/87 66/46/46 33/47/47
f 88/88/88 67/48/48 68/50/50
f 69/62/62 89/51/51 10/53/53
f 6/9/9 34/8/8 48/38/38
f 34/8/8 17/30/30 70/1/1
f 70/1/1 52/19/19 50/2/2
f 50/2/2 71/54/54 19/3/3
f 21/18/18 53/55/55 50/2/2
f 53/55/55 20/21/21 71/54/54
f 54/23/23 72/7/7 13/24/24
f 22/27/27 57/57/57 54/23/23
f 72/7/7 57/57/57 34/8/8
f 58/32/32 73/10/10 15/33/33
f 23/36/36 61/59/59 58/32/32
f 73/10/10 61/59/59 36/6/6
f 62/40/40 74/11/11 16/41/41
f 24/44/44 65/60/60 62/40/40
f 74/11/11 65/60/60 37/12/12
f 16/41/41 66/46/46 45/61/61
f 66/46/46 25/49/49 75/14/14
f 69/62/62 10/53/53 75/14/14
f 46/29/29 76/63/63 17/30/30
f 5/76/76 47/64/64 46/29/29
f 47/64/64 18/65/65 76/63/63
f 21/18/18 51/17/17 53/55/55
f 51/17/17 18/65/65 77/20/20
f 77/20/20 35/66/66 37/12/12
f 2/82/82 26/67/67 42/68/68
f 26/67/67 9/69/69 78/22/22
f 78/22/22 56/70/70 54/23/23
f 9/69/69 38/71/71 56/70/70
f 38/71/71 1/72/72 79/25/25
f 79/25/25 40/73/73 55/26/26
f 55/26/26 80/28/28 22/27/27
f 11/74/74 28/75/75 55/26/26
f 80/28/28 28/75/75 46/29/29
f 3/86/86 29/77/77 44/78/78
f 29/77/77 12/79/79 81/31/31
f 81/31/31 60/80/80 58/32/32
f 12/79/79 41/81/81 60/80/80
f 41/81/81 2/82/82 82/34/34
f 82/34/34 42/68/68 59/35/35
f 59/35/35 83/37/37 23/36/36
f 13/24/24 30/56/56 59/35/35
f 83/37/37 30/56/56 48/38/38
f 31/89/89 84/39/39 4/16/16
f 31/89/89 14/83/83 84/39/39
f 84/39/39 64/84/84 62/40/40
f 14/83/83 43/85/85 64/84/84
f 43/85/85 3/86/86 85/42/42
f 85/42/42 44/78/78 63/43/43
f 63/43/43 86/45/45 24/44/44
f 15/33/33 32/58/58 63/43/43
f 86/45/45 32/58/58 49/4/4
f 8/13/13 35/66/66 33/47/47
f 35/66/66 18/65/65 87/87/87
f 68/50/50 25/49/49 87/87/87
f 18/65/65 47/64/64 68/50/50
f 47/64/64 5/76/76 88/88/88
f 28/75/75 11/74/74 88/88/88
f 25/49/49 67/48/48 69/62/62
f 67/48/48 11/74/74 89/51/51
f 89/51/51 40/73/73 39/52/52
